<svg width="200" height="30" viewBox="0 0 200 30" fill="none" xmlns="http://www.w3.org/2000/svg">
<path d="M7.64071 23V4.71H0.448707V1.3H18.8627V4.71H11.6707V23H7.64071ZM21.1216 23V6.446H24.8106V11.003L24.3766 9.67C24.8726 8.554 25.6476 7.70667 26.7016 7.128C27.7763 6.54933 29.1093 6.26 30.7006 6.26V9.949C30.5353 9.90767 30.3803 9.887 30.2356 9.887C30.0909 9.86633 29.9463 9.856 29.8016 9.856C28.3343 9.856 27.1666 10.29 26.2986 11.158C25.4306 12.0053 24.9966 13.2763 24.9966 14.971V23H21.1216ZM43.0061 23V19.652L42.7891 18.939V13.08C42.7891 11.9433 42.4481 11.065 41.7661 10.445C41.0841 9.80433 40.0508 9.484 38.6661 9.484C37.7361 9.484 36.8165 9.62867 35.9071 9.918C35.0185 10.2073 34.2641 10.6103 33.6441 11.127L32.1251 8.306C33.0138 7.624 34.0678 7.11767 35.2871 6.787C36.5271 6.43567 37.8085 6.26 39.1311 6.26C41.5285 6.26 43.3781 6.83867 44.6801 7.996C46.0028 9.13267 46.6641 10.8997 46.6641 13.297V23H43.0061ZM37.7981 23.217C36.5581 23.217 35.4731 23.0103 34.5431 22.597C33.6131 22.163 32.8898 21.574 32.3731 20.83C31.8771 20.0653 31.6291 19.2077 31.6291 18.257C31.6291 17.327 31.8461 16.49 32.2801 15.746C32.7348 15.002 33.4685 14.413 34.4811 13.979C35.4938 13.545 36.8371 13.328 38.5111 13.328H43.3161V15.901H38.7901C37.4675 15.901 36.5788 16.118 36.1241 16.552C35.6695 16.9653 35.4421 17.482 35.4421 18.102C35.4421 18.8047 35.7211 19.3627 36.2791 19.776C36.8371 20.1893 37.6121 20.396 38.6041 20.396C39.5548 20.396 40.4021 20.179 41.1461 19.745C41.9108 19.311 42.4585 18.6703 42.7891 17.823L43.4401 20.148C43.0681 21.1193 42.3965 21.8737 41.4251 22.411C40.4745 22.9483 39.2655 23.217 37.7981 23.217ZM55.7365 23L48.6375 6.446H52.6675L58.7745 21.047H56.7905L63.1145 6.446H66.8345L59.7355 23H55.7365ZM76.5833 23.217C74.7439 23.217 73.1319 22.8553 71.7473 22.132C70.3833 21.388 69.3189 20.3753 68.5543 19.094C67.8103 17.8127 67.4383 16.3557 67.4383 14.723C67.4383 13.0697 67.7999 11.6127 68.5233 10.352C69.2673 9.07067 70.2799 8.06833 71.5613 7.345C72.8633 6.62167 74.3409 6.26 75.9943 6.26C77.6063 6.26 79.0426 6.61133 80.3033 7.314C81.5639 8.01667 82.5559 9.00867 83.2793 10.29C84.0026 11.5713 84.3643 13.08 84.3643 14.816C84.3643 14.9813 84.3539 15.1673 84.3333 15.374C84.3333 15.5807 84.3229 15.777 84.3023 15.963H70.5073V13.39H82.2563L80.7373 14.196C80.7579 13.2453 80.5616 12.4083 80.1483 11.685C79.7349 10.9617 79.1666 10.3933 78.4433 9.98C77.7406 9.56667 76.9243 9.36 75.9943 9.36C75.0436 9.36 74.2066 9.56667 73.4833 9.98C72.7806 10.3933 72.2226 10.972 71.8093 11.716C71.4166 12.4393 71.2203 13.297 71.2203 14.289V14.909C71.2203 15.901 71.4476 16.7793 71.9023 17.544C72.3569 18.3087 72.9976 18.8977 73.8243 19.311C74.6509 19.7243 75.6016 19.931 76.6763 19.931C77.6063 19.931 78.4433 19.7863 79.1873 19.497C79.9313 19.2077 80.5926 18.753 81.1713 18.133L83.2483 20.52C82.5043 21.388 81.5639 22.0597 80.4273 22.535C79.3113 22.9897 78.0299 23.217 76.5833 23.217ZM88.0864 23V-0.00200135H91.9614V23H88.0864ZM97.4194 23V1.3H107.587C110.191 1.3 112.175 1.81667 113.539 2.85C114.903 3.86267 115.585 5.22667 115.585 6.942C115.585 8.09933 115.317 9.09133 114.779 9.918C114.242 10.724 113.519 11.3543 112.609 11.809C111.721 12.243 110.749 12.46 109.695 12.46L110.253 11.344C111.473 11.344 112.568 11.5713 113.539 12.026C114.511 12.46 115.275 13.1007 115.833 13.948C116.412 14.7953 116.701 15.8493 116.701 17.11C116.701 18.97 115.988 20.4167 114.562 21.45C113.136 22.4833 111.018 23 108.207 23H97.4194ZM101.449 19.838H107.959C109.468 19.838 110.625 19.59 111.431 19.094C112.237 18.598 112.64 17.8023 112.64 16.707C112.64 15.6323 112.237 14.847 111.431 14.351C110.625 13.8343 109.468 13.576 107.959 13.576H101.139V10.445H107.153C108.559 10.445 109.633 10.197 110.377 9.701C111.142 9.205 111.524 8.461 111.524 7.469C111.524 6.45633 111.142 5.702 110.377 5.206C109.633 4.71 108.559 4.462 107.153 4.462H101.449V19.838ZM127.636 23.217C126.231 23.217 124.991 22.9587 123.916 22.442C122.842 21.9047 122.005 21.0987 121.405 20.024C120.806 18.9287 120.506 17.5543 120.506 15.901V6.446H124.381V15.374C124.381 16.862 124.712 17.978 125.373 18.722C126.055 19.4453 127.016 19.807 128.256 19.807C129.166 19.807 129.951 19.621 130.612 19.249C131.294 18.877 131.821 18.319 132.193 17.575C132.586 16.831 132.782 15.9113 132.782 14.816V6.446H136.657V23H132.968V18.536L133.619 19.9C133.061 20.9747 132.245 21.8013 131.17 22.38C130.096 22.938 128.918 23.217 127.636 23.217ZM148.737 23.217C147.146 23.217 145.709 22.8657 144.428 22.163C143.167 21.4397 142.175 20.4477 141.452 19.187C140.729 17.9263 140.367 16.4383 140.367 14.723C140.367 13.0077 140.729 11.5197 141.452 10.259C142.175 8.99833 143.167 8.01667 144.428 7.314C145.709 6.61133 147.146 6.26 148.737 6.26C150.122 6.26 151.362 6.57 152.457 7.19C153.552 7.78933 154.42 8.709 155.061 9.949C155.702 11.189 156.022 12.7803 156.022 14.723C156.022 16.645 155.712 18.2363 155.092 19.497C154.472 20.737 153.614 21.667 152.519 22.287C151.424 22.907 150.163 23.217 148.737 23.217ZM149.202 19.9C150.132 19.9 150.959 19.6933 151.682 19.28C152.426 18.8667 153.015 18.2673 153.449 17.482C153.904 16.6967 154.131 15.777 154.131 14.723C154.131 13.6483 153.904 12.7287 153.449 11.964C153.015 11.1787 152.426 10.5793 151.682 10.166C150.959 9.75267 150.132 9.546 149.202 9.546C148.272 9.546 147.435 9.75267 146.691 10.166C145.968 10.5793 145.379 11.1787 144.924 11.964C144.49 12.7287 144.273 13.6483 144.273 14.723C144.273 15.777 144.49 16.6967 144.924 17.482C145.379 18.2673 145.968 18.8667 146.691 19.28C147.435 19.6933 148.272 19.9 149.202 19.9ZM154.224 23V19.094L154.379 14.692L154.069 10.29V-0.00200135H157.913V23H154.224ZM170.019 23.217C168.428 23.217 166.992 22.8657 165.71 22.163C164.45 21.4397 163.458 20.4477 162.734 19.187C162.011 17.9263 161.649 16.4383 161.649 14.723C161.649 13.0077 162.011 11.5197 162.734 10.259C163.458 8.99833 164.45 8.01667 165.71 7.314C166.992 6.61133 168.428 6.26 170.019 6.26C171.404 6.26 172.644 6.57 173.739 7.19C174.835 7.78933 175.703 8.709 176.343 9.949C176.984 11.189 177.304 12.7803 177.304 14.723C177.304 16.645 176.994 18.2363 176.374 19.497C175.754 20.737 174.897 21.667 173.801 22.287C172.706 22.907 171.445 23.217 170.019 23.217ZM170.484 19.9C171.414 19.9 172.241 19.6933 172.964 19.28C173.708 18.8667 174.297 18.2673 174.731 17.482C175.186 16.6967 175.413 15.777 175.413 14.723C175.413 13.6483 175.186 12.7287 174.731 11.964C174.297 11.1787 173.708 10.5793 172.964 10.166C172.241 9.75267 171.414 9.546 170.484 9.546C169.554 9.546 168.717 9.75267 167.973 10.166C167.25 10.5793 166.661 11.1787 166.206 11.964C165.772 12.7287 165.555 13.6483 165.555 14.723C165.555 15.777 165.772 16.6967 166.206 17.482C166.661 18.2673 167.25 18.8667 167.973 19.28C168.717 19.6933 169.554 19.9 170.484 19.9ZM175.506 23V19.094L175.661 14.692L175.351 10.29V-0.00200135H179.195V23H175.506ZM185.659 29.231C184.853 29.231 184.047 29.0967 183.241 28.828C182.435 28.5593 181.764 28.1873 181.226 27.712L182.776 24.86C183.169 25.2113 183.613 25.4903 184.109 25.697C184.605 25.9037 185.112 26.007 185.628 26.007C186.331 26.007 186.899 25.8313 187.333 25.48C187.767 25.1287 188.17 24.5397 188.542 23.713L189.503 21.543L189.813 21.078L196.075 6.446H199.795L192.045 24.333C191.529 25.573 190.95 26.5547 190.309 27.278C189.689 28.0013 188.987 28.5077 188.201 28.797C187.437 29.0863 186.589 29.231 185.659 29.231ZM189.069 23.589L181.598 6.446H185.628L191.704 20.737L189.069 23.589Z" fill="#86D6BE"/>
</svg>
