<svg width="28" height="26" viewBox="0 0 28 26" fill="none" xmlns="http://www.w3.org/2000/svg">
<mask id="mask0_204_2028" style="mask-type:alpha" maskUnits="userSpaceOnUse" x="0" y="0" width="24" height="24">
<rect width="24" height="24" fill="#D9D9D9"/>
</mask>
<g mask="url(#mask0_204_2028)">
<path d="M7.04164 19.6667C5.65136 19.6667 4.46351 19.1854 3.47809 18.2229C2.49268 17.2604 1.99997 16.084 1.99997 14.6938C1.99997 13.5021 2.359 12.4403 3.07705 11.5083C3.79511 10.5764 4.73469 9.98056 5.8958 9.72083C6.27775 8.31528 7.04164 7.17708 8.18747 6.30625C9.3333 5.43542 10.6319 5 12.0833 5C13.8708 5 15.3871 5.62257 16.6323 6.86771C17.8774 8.11285 18.5 9.62917 18.5 11.4167C19.5541 11.5389 20.4288 11.9934 21.1239 12.7802C21.8191 13.567 22.1666 14.4875 22.1666 15.5417C22.1666 16.6875 21.7656 17.6615 20.9635 18.4635C20.1614 19.2656 19.1875 19.6667 18.0416 19.6667H7.04164ZM7.04164 17.8333H18.0416C18.6833 17.8333 19.2257 17.6118 19.6687 17.1688C20.1118 16.7257 20.3333 16.1833 20.3333 15.5417C20.3333 14.9 20.1118 14.3576 19.6687 13.9146C19.2257 13.4715 18.6833 13.25 18.0416 13.25H16.6666V11.4167C16.6666 10.1486 16.2198 9.06771 15.326 8.17396C14.4323 7.28021 13.3514 6.83333 12.0833 6.83333C10.8152 6.83333 9.73434 7.28021 8.84059 8.17396C7.94684 9.06771 7.49997 10.1486 7.49997 11.4167H7.04164C6.15552 11.4167 5.39928 11.7299 4.77289 12.3563C4.1465 12.9826 3.8333 13.7389 3.8333 14.625C3.8333 15.5111 4.1465 16.2674 4.77289 16.8938C5.39928 17.5201 6.15552 17.8333 7.04164 17.8333Z" fill="#86D6BE"/>
<path d="M7.04164 17.8333H18.0416C18.6833 17.8333 19.2257 17.6118 19.6687 17.1688C20.1118 16.7257 20.3333 16.1833 20.3333 15.5417C20.3333 14.9 20.1118 14.3576 19.6687 13.9146C19.2257 13.4715 18.6833 13.25 18.0416 13.25H16.6666V11.4167C16.6666 10.1486 16.2198 9.06771 15.326 8.17396C14.4323 7.28021 13.3514 6.83333 12.0833 6.83333C10.8152 6.83333 9.73434 7.28021 8.84059 8.17396C7.94684 9.06771 7.49997 10.1486 7.49997 11.4167H7.04164C6.15552 11.4167 5.39928 11.7299 4.77289 12.3563C4.1465 12.9826 3.8333 13.7389 3.8333 14.625C3.8333 15.5111 4.1465 16.2674 4.77289 16.8938C5.39928 17.5201 6.15552 17.8333 7.04164 17.8333Z" fill="#86D6BE"/>
</g>
<path d="M24.8 21.4C24.8 22.1732 24.1732 22.8 23.4 22.8C22.6268 22.8 22 22.1732 22 21.4C22 20.6268 22.6268 20 23.4 20C24.1732 20 24.8 20.6268 24.8 21.4Z" fill="#86D6BE"/>
<circle cx="26.7" cy="24.7" r="0.7" fill="#86D6BE"/>
<path d="M7.76238 17L17.2686 14.7466C17.5356 14.6826 17.7359 14.5348 17.8694 14.3031C18.0029 14.0713 18.0341 13.8356 17.9628 13.5959C17.8916 13.3562 17.7359 13.1764 17.4956 13.0565C17.2552 12.9366 17.0015 12.9087 16.7345 12.9726L14.1176 13.5959L9.8452 10L8.34985 10.3356L10.9133 14.363L8.34985 14.9384L7.01471 14.0274L6 14.2671L7.76238 17Z" fill="#00382C"/>
</svg>
